<?xml version="1.0" encoding="UTF-8" standalone="no"?>
<svg
   xmlns:dc="http://purl.org/dc/elements/1.1/"
   xmlns:cc="http://creativecommons.org/ns#"
   xmlns:rdf="http://www.w3.org/1999/02/22-rdf-syntax-ns#"
   xmlns:svg="http://www.w3.org/2000/svg"
   xmlns="http://www.w3.org/2000/svg"
   id="svg2520"
   version="1.1"
   viewBox="0 0 64.449242 44.309929"
   height="44.309929mm"
   width="64.449242mm">
  <defs
     id="defs2514" />
  <metadata
     id="metadata2517">
    <rdf:RDF>
      <cc:Work
         rdf:about="">
        <dc:format>image/svg+xml</dc:format>
        <dc:type
           rdf:resource="http://purl.org/dc/dcmitype/StillImage" />
        <dc:title></dc:title>
      </cc:Work>
    </rdf:RDF>
  </metadata>
  <g
     transform="translate(-83.974086,-3.3559674)"
     id="layer1">
    <path
       d="m 130.42401,47.665895 h -26.85359 c -5.927458,0 -10.741403,-0.514797 -10.741403,-1.151207 0,-0.634487 4.814039,-1.151201 10.741403,-1.151201 h 26.85359 c 5.93632,0 10.7485,0.516736 10.7485,1.151201 0,0.636394 -4.81199,1.151207 -10.7485,1.151207"
       style="fill:#000000;fill-opacity:1;fill-rule:nonzero;stroke:none;stroke-width:0.58037168"
       id="path26" />
    <path
       d="m 98.935015,47.665895 h -2.876299 c -0.636577,0 -1.151578,-0.514797 -1.151578,-1.151207 0,-0.634487 0.515012,-1.151201 1.151578,-1.151201 h 2.876299 c 0.636012,0 1.150825,0.516736 1.150825,1.151201 0,0.636394 -0.514797,1.151207 -1.150825,1.151207"
       style="fill:#000000;fill-opacity:1;fill-rule:nonzero;stroke:none;stroke-width:0.18996756"
       id="path30" />
    <path
       d="m 147.27207,47.665895 h -15.5365 c -0.63525,0 -1.15101,-0.514797 -1.15101,-1.151207 0,-0.634487 0.51576,-1.151201 1.15101,-1.151201 h 14.38492 V 5.6583741 H 86.275391 V 45.363487 h 9.783325 c 0.635252,0 1.150254,0.516736 1.150254,1.151201 0,0.636394 -0.515013,1.151207 -1.150254,1.151207 h -10.93339 c -0.635252,0 -1.151013,-0.514797 -1.151013,-1.151207 V 4.5071705 c 0,-0.6344917 0.515766,-1.1512031 1.151013,-1.1512031 h 62.146744 c 0.63525,0 1.15101,0.5167141 1.15101,1.1512031 V 46.514688 c 0,0.636394 -0.51576,1.151207 -1.15101,1.151207"
       style="fill:#000000;fill-opacity:1;fill-rule:nonzero;stroke:none;stroke-width:0.18996756"
       id="path32" />
    <path
       d="m 116.19832,28.963591 c -0.24259,0 -0.48615,-0.07598 -0.69016,-0.22986 L 84.434415,5.4285129 C 83.92608,5.04668 83.822911,4.324802 84.204372,3.8175885 c 0.380713,-0.5072151 1.102,-0.613595 1.610922,-0.2298601 L 116.19832,26.374334 146.58192,3.5877284 c 0.5099,-0.3837338 1.23042,-0.277355 1.61112,0.2298601 0.38147,0.5072151 0.27829,1.2290899 -0.23004,1.6109244 L 116.88924,28.733731 c -0.2042,0.153873 -0.44835,0.22986 -0.69092,0.22986"
       style="fill:#000000;fill-opacity:1;fill-rule:nonzero;stroke:none;stroke-width:0.18996756"
       id="path34" />
    <path
       d="m 85.125326,47.665895 c -0.299186,0 -0.597445,-0.115883 -0.822938,-0.345765 -0.444524,-0.45594 -0.435585,-1.1835 0.01777,-1.628024 L 108.63524,21.921467 c 0.45648,-0.444524 1.18521,-0.435025 1.62821,0.01901 0.44453,0.454023 0.43634,1.183497 -0.0188,1.626122 l -24.315076,23.77062 c -0.224173,0.218465 -0.515012,0.328641 -0.804327,0.328641"
       style="fill:#000000;fill-opacity:1;fill-rule:nonzero;stroke:none;stroke-width:0.18996756"
       id="path36" />
    <path
       d="m 147.27207,47.665895 c -0.29084,0 -0.58092,-0.110175 -0.80432,-0.328641 L 122.1519,23.566613 c -0.45346,-0.442623 -0.46159,-1.1721 -0.0172,-1.626121 0.44528,-0.455924 1.17323,-0.463522 1.6265,-0.01901 l 24.31585,23.770639 c 0.45346,0.444524 0.46164,1.172101 0.0172,1.628019 -0.22471,0.229882 -0.5232,0.345711 -0.82218,0.345711"
       style="fill:#000000;fill-opacity:1;fill-rule:nonzero;stroke:none;stroke-width:0.18996756"
       id="path38" />
  </g>
</svg>
