<?xml version="1.0" encoding="UTF-8" standalone="no"?>
<!-- Created with Inkscape (http://www.inkscape.org/) -->

<svg
   xmlns:dc="http://purl.org/dc/elements/1.1/"
   xmlns:cc="http://creativecommons.org/ns#"
   xmlns:rdf="http://www.w3.org/1999/02/22-rdf-syntax-ns#"
   xmlns:svg="http://www.w3.org/2000/svg"
   xmlns="http://www.w3.org/2000/svg"
   xmlns:sodipodi="http://sodipodi.sourceforge.net/DTD/sodipodi-0.dtd"
   xmlns:inkscape="http://www.inkscape.org/namespaces/inkscape"
   version="1.1"
   id="svg2"
   xml:space="preserve"
   width="58.8298"
   height="58.132462"
   viewBox="0 0 58.8298 58.132461"
   sodipodi:docname="5486_2.svg"
   inkscape:version="0.92.3 (2405546, 2018-03-11)"><metadata
     id="metadata8"><rdf:RDF><cc:Work
         rdf:about=""><dc:format>image/svg+xml</dc:format><dc:type
           rdf:resource="http://purl.org/dc/dcmitype/StillImage" /><dc:title></dc:title></cc:Work></rdf:RDF></metadata><defs
     id="defs6" /><sodipodi:namedview
     pagecolor="#ffffff"
     bordercolor="#666666"
     borderopacity="1"
     objecttolerance="10"
     gridtolerance="10"
     guidetolerance="10"
     inkscape:pageopacity="0"
     inkscape:pageshadow="2"
     inkscape:window-width="1920"
     inkscape:window-height="974"
     id="namedview4"
     showgrid="false"
     inkscape:zoom="8.7267462"
     inkscape:cx="64.847633"
     inkscape:cy="25.476315"
     inkscape:window-x="0"
     inkscape:window-y="27"
     inkscape:window-maximized="1"
     inkscape:current-layer="g10"
     fit-margin-top="0"
     fit-margin-left="0"
     fit-margin-right="0"
     fit-margin-bottom="0" /><g
     id="g10"
     inkscape:groupmode="layer"
     inkscape:label="ink_ext_XXXXXX"
     transform="matrix(1.3333333,0,0,-1.3333333,-242.83764,369.26903)"><path
       inkscape:connector-curvature="0"
       id="path262"
       style="fill:#000000;fill-opacity:1;fill-rule:nonzero;stroke:none;stroke-width:0.09999999"
       d="m 208.16539,252.00243 h 16.1 l -2.82,8.2828 h -16.099 z m 17.257,-1.6582 h -17.85 c -0.354,0 -0.67,0.2262 -0.784,0.5621 l -3.383,9.9403 c -0.087,0.2519 -0.045,0.5316 0.111,0.7476 0.155,0.2184 0.405,0.3473 0.673,0.3473 h 17.849 c 0.356,0 0.67,-0.225 0.785,-0.5609 l 3.383,-9.9411 c 0.086,-0.2519 0.045,-0.5312 -0.11,-0.748 -0.157,-0.218 -0.408,-0.3473 -0.674,-0.3473"
       inkscape:export-xdpi="96"
       inkscape:export-ydpi="96" /><path
       inkscape:connector-curvature="0"
       id="path264"
       style="fill:#000000;fill-opacity:1;fill-rule:nonzero;stroke:none;stroke-width:0.09999999"
       d="m 222.03839,233.35243 h -17.849 c -0.458,0 -0.829,0.3711 -0.829,0.8282 v 26.9328 c 0,0.457 0.371,0.8281 0.829,0.8281 0.457,0 0.829,-0.3711 0.829,-0.8281 v -26.1032 h 16.192 v 16.1633 c 0,0.4578 0.371,0.8289 0.828,0.8289 0.458,0 0.829,-0.3711 0.829,-0.8289 v -16.9929 c 0,-0.4571 -0.371,-0.8282 -0.829,-0.8282"
       inkscape:export-xdpi="96"
       inkscape:export-ydpi="96" /><path
       inkscape:connector-curvature="0"
       id="path266"
       style="fill:#000000;fill-opacity:1;fill-rule:nonzero;stroke:none;stroke-width:0.09999999"
       d="m 184.11339,252.00243 h 16.1 l 2.819,8.2828 h -16.099 z m 16.693,-1.6582 h -17.849 c -0.268,0 -0.519,0.1293 -0.674,0.3473 -0.156,0.2168 -0.197,0.4961 -0.111,0.748 l 3.384,9.9411 c 0.114,0.3359 0.429,0.5609 0.783,0.5609 h 17.85 c 0.267,0 0.518,-0.1289 0.673,-0.3473 0.156,-0.216 0.198,-0.4957 0.111,-0.7476 l -3.383,-9.9403 c -0.114,-0.3359 -0.429,-0.5621 -0.784,-0.5621"
       inkscape:export-xdpi="96"
       inkscape:export-ydpi="96" /><path
       inkscape:connector-curvature="0"
       id="path268"
       style="fill:#000000;fill-opacity:1;fill-rule:nonzero;stroke:none;stroke-width:0.09999999"
       d="m 204.18939,233.35243 h -17.85 c -0.457,0 -0.828,0.3711 -0.828,0.8282 v 16.9929 c 0,0.4578 0.371,0.8289 0.828,0.8289 0.458,0 0.829,-0.3711 0.829,-0.8289 v -16.1633 h 16.192 v 26.1032 c 0,0.457 0.371,0.8281 0.829,0.8281 0.457,0 0.829,-0.3711 0.829,-0.8281 v -26.9328 c 0,-0.4571 -0.372,-0.8282 -0.829,-0.8282"
       inkscape:export-xdpi="96"
       inkscape:export-ydpi="96" /><path
       inkscape:connector-curvature="0"
       id="path270"
       style="fill:#000000;fill-opacity:1;fill-rule:nonzero;stroke:none;stroke-width:0.09999999"
       d="m 225.42239,233.35243 h -42.465 c -0.458,0 -0.829,0.3711 -0.829,0.8282 0,0.4578 0.371,0.8296 0.829,0.8296 h 42.465 c 0.457,0 0.828,-0.3718 0.828,-0.8296 0,-0.4571 -0.371,-0.8282 -0.828,-0.8282"
       inkscape:export-xdpi="96"
       inkscape:export-ydpi="96" /><path
       inkscape:connector-curvature="0"
       id="path282"
       style="fill:#000000;fill-opacity:1;fill-rule:nonzero;stroke:none;stroke-width:0.09999999"
       d="m 198.46639,263.27943 c -0.233,0 -0.464,0.0969 -0.628,0.2871 l -1.561,1.8109 c -0.299,0.346 -0.261,0.87 0.086,1.168 0.346,0.298 0.869,0.259 1.168,-0.086 l 1.562,-1.8109 c 0.299,-0.3461 0.26,-0.8699 -0.086,-1.1679 -0.157,-0.1364 -0.349,-0.2012 -0.541,-0.2012"
       inkscape:export-xdpi="96"
       inkscape:export-ydpi="96" /><path
       inkscape:connector-curvature="0"
       id="path284"
       style="fill:#000000;fill-opacity:1;fill-rule:nonzero;stroke:none;stroke-width:0.09999999"
       d="m 190.93939,263.27943 c -0.184,0 -0.37,0.0621 -0.524,0.1879 l -2.946,2.4141 c -0.354,0.289 -0.406,0.811 -0.116,1.165 0.29,0.354 0.812,0.405 1.166,0.116 l 2.946,-2.4139 c 0.354,-0.2902 0.406,-0.8121 0.116,-1.166 -0.164,-0.1992 -0.402,-0.3031 -0.642,-0.3031"
       inkscape:export-xdpi="96"
       inkscape:export-ydpi="96" /><path
       inkscape:connector-curvature="0"
       id="path286"
       style="fill:#000000;fill-opacity:1;fill-rule:nonzero;stroke:none;stroke-width:0.09999999"
       d="m 212.14751,263.61866 c -0.176,0 -0.352,0.056 -0.504,0.171 -0.362,0.279 -0.431,0.798 -0.153,1.162 l 1.847,2.41 c 0.279,0.361 0.796,0.43 1.161,0.153 0.363,-0.278 0.431,-0.798 0.153,-1.162 l -1.846,-2.409 c -0.163,-0.212 -0.409,-0.325 -0.658,-0.325"
       inkscape:export-xdpi="96"
       inkscape:export-ydpi="96" /><path
       inkscape:connector-curvature="0"
       id="path288"
       style="fill:#000000;fill-opacity:1;fill-rule:nonzero;stroke:none;stroke-width:0.09999999"
       d="m 219.23348,263.19962 c -0.208,0 -0.416,0.0779 -0.577,0.2329 -0.328,0.319 -0.336,0.844 -0.018,1.172 l 3.692,3.807 c 0.319,0.328 0.844,0.336 1.172,0.018 0.328,-0.318 0.336,-0.844 0.017,-1.172 l -3.691,-3.806 c -0.163,-0.168 -0.379,-0.2519 -0.595,-0.2519"
       inkscape:export-xdpi="96"
       inkscape:export-ydpi="96" /><text
       xml:space="preserve"
       style="font-style:normal;font-weight:normal;font-size:30px;line-height:1.25;font-family:sans-serif;letter-spacing:0px;word-spacing:0px;fill:#000000;fill-opacity:1;stroke:none;stroke-width:0.75"
       x="200.17619"
       y="-262.57294"
       id="text11911"
       transform="scale(1,-1)"
       inkscape:export-xdpi="96"
       inkscape:export-ydpi="96"><tspan
         sodipodi:role="line"
         id="tspan11909"
         x="200.17619"
         y="-262.57294"
         style="font-style:normal;font-variant:normal;font-weight:normal;font-stretch:normal;font-size:20px;font-family:'Ubuntu Mono';-inkscape-font-specification:'Ubuntu Mono';stroke-width:0.75">?</tspan></text>
</g></svg>